<svg width="390" height="25" viewBox="0 0 390 25" fill="none" xmlns="http://www.w3.org/2000/svg">
<path d="M375.136 24C374.5 24 374.182 23.682 374.182 23.046V1.752C374.182 1.116 374.5 0.798004 375.136 0.798004H388.618C389.254 0.798004 389.572 1.116 389.572 1.752C389.572 2.376 389.254 2.688 388.618 2.688H376.072V11.31H384.37C385.006 11.31 385.324 11.622 385.324 12.246C385.324 12.882 385.006 13.2 384.37 13.2H376.072V22.11H388.618C389.254 22.11 389.572 22.422 389.572 23.046C389.572 23.682 389.254 24 388.618 24H375.136Z" fill="white"/>
<path d="M368.539 24.036C368.275 24.192 368.035 24.246 367.819 24.198C367.603 24.15 367.411 24 367.243 23.748L361.339 14.352H354.733V23.046C354.733 23.682 354.421 24 353.797 24C353.161 24 352.843 23.682 352.843 23.046V1.752C352.843 1.116 353.161 0.798004 353.797 0.798004H362.221C364.273 0.798004 365.821 1.326 366.865 2.382C367.921 3.438 368.449 4.992 368.449 7.044V8.124C368.449 9.936 368.035 11.358 367.207 12.39C366.379 13.422 365.155 14.052 363.535 14.28L368.845 22.74C369.181 23.292 369.079 23.724 368.539 24.036ZM354.733 12.462H362.221C363.733 12.462 364.831 12.12 365.515 11.436C366.211 10.74 366.559 9.636 366.559 8.124V7.044C366.559 5.52 366.211 4.416 365.515 3.732C364.831 3.036 363.733 2.688 362.221 2.688H354.733V12.462Z" fill="white"/>
<path d="M328.911 23.91C328.335 23.658 328.161 23.238 328.389 22.65L337.317 1.536C337.509 1.044 337.863 0.798004 338.379 0.798004H338.487C338.979 0.810003 339.327 1.056 339.531 1.536L348.459 22.65C348.699 23.238 348.531 23.658 347.955 23.91C347.367 24.15 346.959 23.982 346.731 23.406L344.337 17.736H332.547L330.153 23.406C329.913 23.982 329.499 24.15 328.911 23.91ZM333.321 15.846H343.545L338.433 3.786L333.321 15.846Z" fill="white"/>
<path d="M313.683 24C313.047 24 312.729 23.682 312.729 23.046V1.752C312.729 1.116 313.047 0.798004 313.683 0.798004C314.307 0.798004 314.619 1.116 314.619 1.752V22.11H325.563C326.199 22.11 326.517 22.422 326.517 23.046C326.517 23.682 326.199 24 325.563 24H313.683Z" fill="white"/>
<path d="M293.855 24C293.219 24 292.901 23.682 292.901 23.046V1.752C292.901 1.116 293.219 0.798004 293.855 0.798004C294.479 0.798004 294.791 1.116 294.791 1.752V12.102L305.483 1.14C305.915 0.696004 306.353 0.690004 306.797 1.122C307.265 1.554 307.277 2.004 306.833 2.472L298.769 10.734L308.255 22.506C308.651 22.998 308.609 23.442 308.129 23.838C307.637 24.234 307.199 24.192 306.815 23.712L297.455 12.102L294.791 14.82V23.046C294.791 23.682 294.479 24 293.855 24Z" fill="white"/>
<path d="M275.98 24C273.376 24 271.474 23.4 270.274 22.2C269.074 21 268.474 19.098 268.474 16.494V8.304C268.474 5.676 269.068 3.768 270.256 2.58C271.456 1.392 273.352 0.798004 275.944 0.798004H280.3C282.508 0.798004 284.152 1.26 285.232 2.184C286.312 3.096 286.906 4.566 287.014 6.594C287.05 6.918 286.984 7.164 286.816 7.332C286.66 7.5 286.426 7.584 286.114 7.584C285.514 7.584 285.184 7.266 285.124 6.63C285.04 5.142 284.632 4.116 283.9 3.552C283.168 2.976 281.968 2.688 280.3 2.688H275.944C274.564 2.688 273.466 2.868 272.65 3.228C271.834 3.576 271.246 4.16401 270.886 4.99201C270.538 5.808 270.364 6.912 270.364 8.304V16.494C270.364 17.886 270.544 18.99 270.904 19.806C271.264 20.622 271.852 21.21 272.668 21.57C273.484 21.93 274.588 22.11 275.98 22.11H280.3C281.968 22.11 283.168 21.828 283.9 21.264C284.632 20.688 285.04 19.656 285.124 18.168C285.184 17.532 285.514 17.214 286.114 17.214C286.426 17.214 286.66 17.304 286.816 17.484C286.984 17.652 287.05 17.892 287.014 18.204C286.906 20.232 286.312 21.708 285.232 22.632C284.152 23.544 282.508 24 280.3 24H275.98Z" fill="white"/>
<path d="M250.437 24C249.801 24 249.483 23.682 249.483 23.046V1.752C249.483 1.116 249.801 0.798004 250.437 0.798004H263.919C264.555 0.798004 264.873 1.116 264.873 1.752C264.873 2.376 264.555 2.688 263.919 2.688H251.373V11.31H259.671C260.307 11.31 260.625 11.622 260.625 12.246C260.625 12.882 260.307 13.2 259.671 13.2H251.373V22.11H263.919C264.555 22.11 264.873 22.422 264.873 23.046C264.873 23.682 264.555 24 263.919 24H250.437Z" fill="white"/>
<path d="M235.033 24C234.625 24 234.331 23.784 234.151 23.352L224.809 2.14799C224.653 1.79999 224.653 1.51199 224.809 1.28399C224.977 1.05599 225.205 0.911994 225.493 0.851994C225.985 0.731994 226.327 0.911995 226.519 1.39199L235.519 21.804H234.853L243.799 1.39199C243.991 0.911995 244.339 0.731994 244.843 0.851994C245.155 0.911994 245.383 1.05599 245.527 1.28399C245.671 1.51199 245.671 1.79999 245.527 2.14799L236.149 23.352C235.969 23.784 235.663 24 235.231 24H235.033Z" fill="white"/>
<path d="M213.31 24.018C213.022 24.018 212.788 23.934 212.608 23.766C212.44 23.598 212.356 23.37 212.356 23.082V2.67H204.706C204.418 2.67 204.184 2.586 204.004 2.418C203.836 2.25 203.752 2.022 203.752 1.734C203.752 1.446 203.836 1.218 204.004 1.05C204.184 0.869998 204.418 0.779999 204.706 0.779999H221.914C222.202 0.779999 222.43 0.869998 222.598 1.05C222.766 1.218 222.85 1.446 222.85 1.734C222.85 2.022 222.766 2.25 222.598 2.418C222.43 2.586 222.202 2.67 221.914 2.67H214.246V23.082C214.246 23.358 214.156 23.586 213.976 23.766C213.808 23.934 213.586 24.018 213.31 24.018Z" fill="white"/>
<path d="M188.079 24C185.475 24 183.573 23.4 182.373 22.2C181.173 21 180.573 19.098 180.573 16.494V1.752C180.573 1.464 180.657 1.236 180.825 1.068C181.005 0.888004 181.239 0.798004 181.527 0.798004C181.815 0.798004 182.043 0.888004 182.211 1.068C182.379 1.236 182.463 1.464 182.463 1.752V16.494C182.463 17.886 182.643 18.99 183.003 19.806C183.363 20.622 183.951 21.21 184.767 21.57C185.583 21.93 186.687 22.11 188.079 22.11H192.399C193.779 22.11 194.877 21.93 195.693 21.57C196.509 21.21 197.097 20.622 197.457 19.806C197.817 18.99 197.997 17.886 197.997 16.494V1.752C197.997 1.464 198.081 1.236 198.249 1.068C198.429 0.888004 198.663 0.798004 198.951 0.798004C199.239 0.798004 199.467 0.888004 199.635 1.068C199.803 1.236 199.887 1.464 199.887 1.752V16.494C199.887 19.098 199.287 21 198.087 22.2C196.899 23.4 195.003 24 192.399 24H188.079Z" fill="white"/>
<path d="M157.273 24C156.637 24 156.319 23.682 156.319 23.046V1.752C156.319 1.116 156.637 0.798004 157.273 0.798004H165.949C168.937 0.798004 171.109 1.482 172.465 2.85C173.833 4.218 174.517 6.396 174.517 9.384V15.414C174.517 18.402 173.833 20.58 172.465 21.948C171.109 23.316 168.937 24 165.949 24H157.273ZM158.209 22.11H165.949C167.581 22.11 168.883 21.894 169.855 21.462C170.839 21.03 171.547 20.328 171.979 19.356C172.411 18.372 172.627 17.058 172.627 15.414V9.384C172.627 7.752 172.411 6.45 171.979 5.478C171.547 4.494 170.839 3.786 169.855 3.354C168.883 2.91 167.581 2.688 165.949 2.688H158.209V22.11Z" fill="white"/>
<path d="M131.925 24C131.289 24 130.971 23.682 130.971 23.046V1.752C130.971 1.116 131.289 0.798004 131.925 0.798004C132.261 0.798004 132.585 0.984004 132.897 1.356L148.143 20.94H147.711V1.752C147.711 1.116 148.029 0.798004 148.665 0.798004C149.289 0.798004 149.601 1.116 149.601 1.752V23.046C149.601 23.682 149.289 24 148.665 24C148.317 24 147.993 23.814 147.693 23.442L132.429 3.858H132.861V23.046C132.861 23.682 132.549 24 131.925 24Z" fill="white"/>
<path d="M111.746 24C111.11 24 110.792 23.682 110.792 23.046V1.752C110.792 1.116 111.11 0.798004 111.746 0.798004H125.228C125.864 0.798004 126.182 1.116 126.182 1.752C126.182 2.376 125.864 2.688 125.228 2.688H112.682V11.31H120.98C121.616 11.31 121.934 11.622 121.934 12.246C121.934 12.882 121.616 13.2 120.98 13.2H112.682V22.11H125.228C125.864 22.11 126.182 22.422 126.182 23.046C126.182 23.682 125.864 24 125.228 24H111.746Z" fill="white"/>
<path d="M97.224 24.018C96.936 24.018 96.702 23.934 96.522 23.766C96.354 23.598 96.27 23.37 96.27 23.082V2.67H88.62C88.332 2.67 88.098 2.586 87.918 2.418C87.75 2.25 87.666 2.022 87.666 1.734C87.666 1.446 87.75 1.218 87.918 1.05C88.098 0.869998 88.332 0.779999 88.62 0.779999H105.828C106.116 0.779999 106.344 0.869998 106.512 1.05C106.68 1.218 106.764 1.446 106.764 1.734C106.764 2.022 106.68 2.25 106.512 2.418C106.344 2.586 106.116 2.67 105.828 2.67H98.16V23.082C98.16 23.358 98.07 23.586 97.89 23.766C97.722 23.934 97.5 24.018 97.224 24.018Z" fill="white"/>
<path d="M65.9723 24C65.3363 24 65.0183 23.682 65.0183 23.046V1.752C65.0183 1.116 65.3363 0.798004 65.9723 0.798004C66.3083 0.798004 66.6323 0.984004 66.9443 1.356L82.1903 20.94H81.7583V1.752C81.7583 1.116 82.0763 0.798004 82.7123 0.798004C83.3363 0.798004 83.6483 1.116 83.6483 1.752V23.046C83.6483 23.682 83.3363 24 82.7123 24C82.3643 24 82.0403 23.814 81.7403 23.442L66.4763 3.858H66.9083V23.046C66.9083 23.682 66.5963 24 65.9723 24Z" fill="white"/>
<path d="M46.9719 24C44.3679 24 42.4659 23.4 41.2659 22.2C40.0659 21 39.4659 19.098 39.4659 16.494V8.28599C39.4659 5.65799 40.0659 3.74999 41.2659 2.56199C42.4659 1.36199 44.3559 0.773993 46.9359 0.797993H51.2919C53.8959 0.797993 55.7919 1.39799 56.9799 2.59799C58.1799 3.79799 58.7799 5.69999 58.7799 8.30399V16.494C58.7799 19.098 58.1799 21 56.9799 22.2C55.7919 23.4 53.8959 24 51.2919 24H46.9719ZM46.9719 22.11H51.2919C52.6719 22.11 53.7699 21.93 54.5859 21.57C55.4019 21.21 55.9899 20.622 56.3499 19.806C56.7099 18.99 56.8899 17.886 56.8899 16.494V8.30399C56.8899 6.92399 56.7099 5.82599 56.3499 5.00999C55.9899 4.19399 55.4019 3.60599 54.5859 3.24599C53.7699 2.87399 52.6719 2.68799 51.2919 2.68799H46.9359C45.5559 2.67599 44.4579 2.84999 43.6419 3.20999C42.8379 3.55799 42.2559 4.14599 41.8959 4.97399C41.5359 5.78999 41.3559 6.89399 41.3559 8.28599V16.494C41.3559 17.886 41.5359 18.99 41.8959 19.806C42.2559 20.622 42.8439 21.21 43.6599 21.57C44.4759 21.93 45.5799 22.11 46.9719 22.11Z" fill="white"/>
<path d="M34.3081 24.036C34.0441 24.192 33.8041 24.246 33.5881 24.198C33.3721 24.15 33.1801 24 33.0121 23.748L27.1081 14.352H20.5021V23.046C20.5021 23.682 20.1901 24 19.5661 24C18.9301 24 18.6121 23.682 18.6121 23.046V1.752C18.6121 1.116 18.9301 0.798004 19.5661 0.798004H27.9901C30.0421 0.798004 31.5901 1.326 32.6341 2.382C33.6901 3.438 34.2181 4.992 34.2181 7.044V8.124C34.2181 9.936 33.8041 11.358 32.9761 12.39C32.1481 13.422 30.9241 14.052 29.3041 14.28L34.6141 22.74C34.9501 23.292 34.8481 23.724 34.3081 24.036ZM20.5021 12.462H27.9901C29.5021 12.462 30.6001 12.12 31.2841 11.436C31.9801 10.74 32.3281 9.636 32.3281 8.124V7.044C32.3281 5.52 31.9801 4.416 31.2841 3.732C30.6001 3.036 29.5021 2.688 27.9901 2.688H20.5021V12.462Z" fill="white"/>
<path d="M1.32 24C0.683997 24 0.365997 23.682 0.365997 23.046V1.752C0.365997 1.116 0.683997 0.798004 1.32 0.798004H14.298C14.598 0.798004 14.826 0.882004 14.982 1.05C15.15 1.206 15.234 1.44 15.234 1.752C15.234 2.376 14.922 2.688 14.298 2.688H2.256V11.31H10.464C11.1 11.31 11.418 11.622 11.418 12.246C11.418 12.882 11.1 13.2 10.464 13.2H2.256V23.046C2.256 23.682 1.944 24 1.32 24Z" fill="white"/>
</svg>
